<svg width="128" height="128" viewBox="0 0 128 128" fill="none" xmlns="http://www.w3.org/2000/svg">
<path d="M64 0L69.5203 7.95119L76.4858 1.22974L80.3488 10.1051L88.4917 4.87171L90.5491 14.3302L99.5565 10.7859L99.729 20.4641L109.255 18.7452L107.536 28.271L117.214 28.4435L113.67 37.4509L123.128 39.5083L117.895 47.6512L126.77 51.5142L120.049 58.4797L128 64L120.049 69.5203L126.77 76.4858L117.895 80.3488L123.128 88.4917L113.67 90.5491L117.214 99.5565L107.536 99.729L109.255 109.255L99.729 107.536L99.5565 117.214L90.5491 113.67L88.4917 123.128L80.3488 117.895L76.4858 126.77L69.5203 120.049L64 128L58.4797 120.049L51.5142 126.77L47.6512 117.895L39.5083 123.128L37.4509 113.67L28.4435 117.214L28.271 107.536L18.7452 109.255L20.4641 99.729L10.7859 99.5565L14.3302 90.5491L4.87171 88.4917L10.1051 80.3488L1.22974 76.4858L7.95119 69.5203L0 64L7.95119 58.4797L1.22974 51.5142L10.1051 47.6512L4.87171 39.5083L14.3302 37.4509L10.7859 28.4435L20.4641 28.271L18.7452 18.7452L28.271 20.4641L28.4435 10.7859L37.4509 14.3302L39.5083 4.87171L47.6512 10.1051L51.5142 1.22974L58.4797 7.95119L64 0Z" fill="#FF9D2D"/>
</svg>
