<svg width="32" height="32" viewBox="0 0 32 32" fill="none" xmlns="http://www.w3.org/2000/svg">
<path d="M13.8857 12.8357C13.4697 13.1138 13.1126 13.4712 12.8346 13.8873C12.5567 14.3035 12.3635 14.7703 12.266 15.2611C12.0691 16.2524 12.274 17.2813 12.8357 18.1214C13.3974 18.9616 14.2698 19.5442 15.2611 19.7411C16.2524 19.9381 17.2813 19.7331 18.1214 19.1714C18.9616 18.6097 19.5442 17.7373 19.7411 16.746C19.9381 15.7548 19.7331 14.7259 19.1714 13.8857C18.6097 13.0455 17.7373 12.4629 16.746 12.266C15.7548 12.0691 14.7259 12.274 13.8857 12.8357ZM24.05 7.95C23.6786 7.57857 23.2286 7.28571 22.7357 7.09286C21.4429 6.58571 18.6214 6.60714 16.8 6.62857C16.5071 6.62857 16.2357 6.63571 16 6.63571C15.7643 6.63571 15.4857 6.63571 15.1857 6.62857C13.3643 6.60714 10.5571 6.57857 9.26429 7.09286C8.77143 7.28571 8.32857 7.57857 7.95 7.95C7.57143 8.32143 7.28571 8.77143 7.09286 9.26429C6.58571 10.5571 6.61429 13.3857 6.62857 15.2071C6.62857 15.5 6.63571 15.7714 6.63571 16C6.63571 16.2286 6.63571 16.5 6.62857 16.7929C6.61429 18.6143 6.58571 21.4429 7.09286 22.7357C7.28571 23.2286 7.57857 23.6714 7.95 24.05C8.32143 24.4286 8.77143 24.7143 9.26429 24.9071C10.5571 25.4143 13.3786 25.3929 15.2 25.3714C15.4929 25.3714 15.7643 25.3643 16 25.3643C16.2357 25.3643 16.5143 25.3643 16.8143 25.3714C18.6357 25.3929 21.4429 25.4214 22.7357 24.9071C23.2286 24.7143 23.6714 24.4214 24.05 24.05C24.4286 23.6786 24.7143 23.2286 24.9071 22.7357C25.4214 21.45 25.3929 18.6357 25.3714 16.8071C25.3714 16.5071 25.3643 16.2286 25.3643 15.9929C25.3643 15.7571 25.3643 15.4857 25.3714 15.1786C25.3929 13.3571 25.4214 10.5429 24.9071 9.25C24.7143 8.75714 24.4214 8.31429 24.05 7.93572V7.95ZM19.2571 11.1286C20.5491 11.9924 21.445 13.3341 21.7478 14.8585C22.0505 16.3829 21.7353 17.9652 20.8714 19.2571C20.4437 19.8969 19.8941 20.4461 19.2542 20.8734C18.6142 21.3008 17.8963 21.5979 17.1415 21.7478C15.6171 22.0505 14.0348 21.7353 12.7429 20.8714C11.4509 20.0085 10.5546 18.6677 10.2512 17.144C9.94778 15.6203 10.2621 14.0384 11.125 12.7464C11.9879 11.4544 13.3287 10.5582 14.8524 10.2548C16.3762 9.95135 17.958 10.2657 19.25 11.1286H19.2571ZM21.3429 11.0357C21.1214 10.8857 20.9429 10.6714 20.8357 10.4214C20.7286 10.1714 20.7071 9.9 20.7571 9.62857C20.8071 9.35714 20.9429 9.12143 21.1286 8.92857C21.3143 8.73571 21.5643 8.60714 21.8286 8.55714C22.0929 8.50714 22.3714 8.52857 22.6214 8.63571C22.8714 8.74286 23.0857 8.91429 23.2357 9.13571C23.3857 9.35714 23.4643 9.62143 23.4643 9.89286C23.4643 10.0714 23.4286 10.25 23.3643 10.4143C23.3 10.5786 23.1929 10.7286 23.0714 10.8571C22.95 10.9857 22.7929 11.0857 22.6286 11.1571C22.4643 11.2286 22.2857 11.2643 22.1071 11.2643C21.8357 11.2643 21.5714 11.1857 21.35 11.0357H21.3429ZM32 4.57143C32 2.05 29.95 0 27.4286 0H4.57143C2.05 0 0 2.05 0 4.57143V27.4286C0 29.95 2.05 32 4.57143 32H27.4286C29.95 32 32 29.95 32 27.4286V4.57143ZM25.5 25.5C24.1643 26.8357 22.5429 27.2571 20.7143 27.35C18.8286 27.4571 13.1714 27.4571 11.2857 27.35C9.45714 27.2571 7.83571 26.8357 6.5 25.5C5.16429 24.1643 4.74286 22.5429 4.65714 20.7143C4.55 18.8286 4.55 13.1714 4.65714 11.2857C4.75 9.45714 5.16429 7.83571 6.5 6.5C7.83571 5.16429 9.46429 4.74286 11.2857 4.65714C13.1714 4.55 18.8286 4.55 20.7143 4.65714C22.5429 4.75 24.1643 5.16429 25.5 6.5C26.8357 7.83571 27.2571 9.45714 27.3429 11.2857C27.45 13.1643 27.45 18.8143 27.3429 20.7071C27.25 22.5357 26.8357 24.1571 25.5 25.4929V25.5Z" fill="#0C0102"/>
</svg>
