<svg width="8" height="8" viewBox="0 0 8 8" fill="none" xmlns="http://www.w3.org/2000/svg">
<path fill-rule="evenodd" clip-rule="evenodd" d="M0 4C0 3.84848 0.0526785 3.70316 0.146447 3.59601C0.240215 3.48887 0.367392 3.42867 0.5 3.42867H6.293L4.146 0.976546C4.05211 0.869266 3.99937 0.723764 3.99937 0.572047C3.99937 0.420331 4.05211 0.274829 4.146 0.167549C4.23989 0.0602692 4.36722 0 4.5 0C4.63278 0 4.76011 0.0602692 4.854 0.167549L7.854 3.5955C7.90056 3.64857 7.93751 3.71162 7.96271 3.78103C7.98792 3.85044 8.00089 3.92485 8.00089 4C8.00089 4.07515 7.98792 4.14956 7.96271 4.21897C7.93751 4.28838 7.90056 4.35143 7.854 4.4045L4.854 7.83245C4.76011 7.93973 4.63278 8 4.5 8C4.36722 8 4.23989 7.93973 4.146 7.83245C4.05211 7.72517 3.99937 7.57967 3.99937 7.42795C3.99937 7.27624 4.05211 7.13073 4.146 7.02345L6.293 4.57133H0.5C0.367392 4.57133 0.240215 4.51113 0.146447 4.40399C0.0526785 4.29684 0 4.15153 0 4Z" fill="#0C0102"/>
</svg>
