<svg width="40" height="36" viewBox="0 0 40 36" fill="none" xmlns="http://www.w3.org/2000/svg">
<path fill-rule="evenodd" clip-rule="evenodd" d="M0 33.3333C0 32.6261 0.191558 31.9478 0.532533 31.4477C0.873509 30.9476 1.33597 30.6667 1.81818 30.6667H38.1818C38.664 30.6667 39.1265 30.9476 39.4675 31.4477C39.8084 31.9478 40 32.6261 40 33.3333C40 34.0406 39.8084 34.7189 39.4675 35.219C39.1265 35.7191 38.664 36 38.1818 36H1.81818C1.33597 36 0.873509 35.7191 0.532533 35.219C0.191558 34.7189 0 34.0406 0 33.3333ZM0 18C0 17.2928 0.191558 16.6145 0.532533 16.1144C0.873509 15.6143 1.33597 15.3333 1.81818 15.3333H38.1818C38.664 15.3333 39.1265 15.6143 39.4675 16.1144C39.8084 16.6145 40 17.2928 40 18C40 18.7072 39.8084 19.3855 39.4675 19.8856C39.1265 20.3857 38.664 20.6667 38.1818 20.6667H1.81818C1.33597 20.6667 0.873509 20.3857 0.532533 19.8856C0.191558 19.3855 0 18.7072 0 18ZM0 2.66667C0 1.95942 0.191558 1.28115 0.532533 0.781049C0.873509 0.280952 1.33597 0 1.81818 0H38.1818C38.664 0 39.1265 0.280952 39.4675 0.781049C39.8084 1.28115 40 1.95942 40 2.66667C40 3.37391 39.8084 4.05219 39.4675 4.55228C39.1265 5.05238 38.664 5.33333 38.1818 5.33333H1.81818C1.33597 5.33333 0.873509 5.05238 0.532533 4.55228C0.191558 4.05219 0 3.37391 0 2.66667Z" fill="#7A0D10"/>
</svg>
