<svg width="32" height="33" viewBox="0 0 32 33" fill="none" xmlns="http://www.w3.org/2000/svg">
<path d="M4.57143 0C2.05 0 0 2.05413 0 4.58065V27.4839C0 30.0104 2.05 32.0645 4.57143 32.0645H27.4286C29.95 32.0645 32 30.0104 32 27.4839V4.58065C32 2.05413 29.95 0 27.4286 0H4.57143ZM11.05 6.92107C11.7429 6.73498 12.4714 7.08569 12.7429 7.75131L14.1714 11.1868C14.4143 11.7737 14.2429 12.4465 13.7571 12.8473L12 14.293C13.1857 16.8124 15.2214 18.8522 17.7357 20.0403L19.1786 18.2725C19.5786 17.7858 20.25 17.614 20.8357 17.8574L24.2643 19.2888C24.9286 19.5679 25.2786 20.2908 25.0929 20.9851L24.2357 24.1343C24.0643 24.7641 23.5 25.1936 22.8571 25.1936C14.0214 25.1936 6.85714 18.0148 6.85714 9.16129C6.85714 8.51714 7.28571 7.95171 7.90714 7.77994L11.05 6.92107Z" fill="#6E0C0E"/>
</svg>
