<svg width="33" height="33" viewBox="0 0 33 33" fill="none" xmlns="http://www.w3.org/2000/svg">
<path d="M4.64931 0C2.12788 0 0.0778809 2.05413 0.0778809 4.58065V27.4839C0.0778809 30.0104 2.12788 32.0645 4.64931 32.0645H27.5065C30.0279 32.0645 32.0779 30.0104 32.0779 27.4839V4.58065C32.0779 2.05413 30.0279 0 27.5065 0H4.64931ZM11.1279 6.92107C11.8207 6.73498 12.5493 7.08569 12.8207 7.75131L14.2493 11.1868C14.4922 11.7737 14.3207 12.4465 13.835 12.8473L12.0779 14.293C13.2636 16.8124 15.2993 18.8522 17.8136 20.0403L19.2565 18.2725C19.6565 17.7858 20.3279 17.614 20.9136 17.8574L24.3422 19.2888C25.0065 19.5679 25.3565 20.2908 25.1707 20.9851L24.3136 24.1343C24.1422 24.7641 23.5779 25.1936 22.935 25.1936C14.0993 25.1936 6.93502 18.0148 6.93502 9.16129C6.93502 8.51714 7.3636 7.95171 7.98502 7.77994L11.1279 6.92107Z" fill="#7A0D10"/>
</svg>
