<svg width="40" height="40" viewBox="0 0 40 40" fill="none" xmlns="http://www.w3.org/2000/svg">
<path d="M25.1786 20.0179L16.6786 15.1875V24.8482L25.1786 20.0179ZM34.2857 0H5.71429C2.5625 0 0 2.5625 0 5.71429V34.2857C0 37.4375 2.5625 40 5.71429 40H34.2857C37.4375 40 40 37.4375 40 34.2857V5.71429C40 2.5625 37.4375 0 34.2857 0ZM35.5714 12.1518C36.25 14.7054 36.25 20.0268 36.25 20.0268C36.25 20.0268 36.25 25.3482 35.5714 27.8929C35.1964 29.3036 34.0982 30.3661 32.6964 30.7411C30.1696 31.4286 20 31.4286 20 31.4286C20 31.4286 9.83036 31.4286 7.30357 30.75C5.90179 30.375 4.80357 29.3125 4.42857 27.9018C3.75 25.3482 3.75 20.0268 3.75 20.0268C3.75 20.0268 3.75 14.6964 4.42857 12.1518C4.80357 10.7411 5.90179 9.63393 7.30357 9.25893C9.83036 8.57143 20 8.57143 20 8.57143C20 8.57143 30.1696 8.57143 32.6964 9.25893C34.0982 9.63393 35.1964 10.7411 35.5714 12.1518Z" fill="#0C0102"/>
</svg>
